<svg width="1212" height="366" viewBox="0 0 1212 366" fill="none" xmlns="http://www.w3.org/2000/svg">
<g filter="url(#filter0_d_62_2)">
<path d="M4 9.04923H14.5741L23.3479 3.90522C29.168 2.19056 42.4394 14.8897 42.7716 13.2318C49.1161 14.7099 57.5753 3.08115 57.5753 7.44194L68.1494 5.01928L68.1478 5.01927C68.1478 5.01927 78.1712 4.99622 78.6517 1.79057C78.6085 1.50776 78.5864 1.24235 78.5864 0.99988C78.6695 1.28291 78.6884 1.546 78.6517 1.79057C79.1267 4.89651 82.1526 10.1027 86.4778 10.1027H101.986C105.363 7.53068 122.581 15.7431 127.364 13.2318C149.515 18.0188 183.09 11.8331 184.464 9.04923C200.509 19.6587 206.917 15.8007 210.693 15.4792C214.468 15.1577 219.959 9.43318 218.301 7.44194C221.768 6.30409 229.186 5.67425 231.074 2.13775C233.748 3.10225 240.886 9.04923 245.794 9.04923C263.915 15.222 275.937 10.1209 278.926 12.2642L298.202 10.1027L311.207 12.2642L326.78 9.04923L333.911 7.25806L353.207 15.4792H379.633C384.824 13.3359 393.169 9.13514 395.241 12.2642C397.779 16.0982 409.835 9.04922 418.801 12.2642C417.954 16.0764 450.005 18.5418 448.618 14.9385C484.86 6.96534 490.157 7.25806 493.932 7.25806C493.932 8.68037 498.269 9.69223 504.687 12.2642C503.729 17.7832 529.005 11.8095 532.32 10.1027L544.751 9.04923L552.442 14.9385C552.757 12.7952 558.425 11.8095 561.74 9.53376C561.74 12.0939 573.27 14.3034 575 13.2318V352L567.963 345.167C564.791 342.086 560.542 340.363 556.12 340.363H550.138L546.802 348.328C545.512 345.531 514.779 348.626 506.621 353.448C506.621 350.096 502.071 352.595 496.193 351.125C495.027 346.052 487.783 349.785 479.833 350.333C479.081 349.216 477.209 330.976 462.688 345.66C461.463 345.199 443.859 342.429 442.472 350.333C428.786 353.869 433.755 347.19 421.323 348.328C418.009 343.492 394.017 352.155 386.781 350.333H379.633C379.161 348.94 376.785 348.328 373.388 348.328H360.699C356.747 348.328 350.077 343.994 347.554 341.899C343.592 344.66 334.399 350.165 337.152 352.595C326.379 351.742 318.92 352.311 318.091 354.017C316.02 352.595 304.428 348.342 303.599 350.333C301.344 348.12 289.253 350.799 288.96 350.333C288.666 349.866 286.613 348.328 283.943 348.328C280.456 345.936 276.339 348.332 274.412 351.131C266.579 355.203 257.364 350.509 257.364 351.125C257.364 351.742 256.152 352.519 256.467 355.948C250.018 357.77 225.765 352.04 225.351 350.333C224.109 345.22 206.585 348.328 198.563 348.328C190.541 348.328 188.245 353.353 183.054 343.708C136.808 334.063 134.717 340.194 133.773 345.66C126.6 353.89 89.674 346.066 94.2321 350.333L67.4444 340.363L65.3296 350.333L43.365 358L33.6074 350.333L21.4035 354.017L16.4311 355.948L7.31495 356.293L4 358V9.04923Z" fill="url(#paint0_linear_62_2)"/>
<path d="M575 13.2318L586.722 9.04923L598 14.9385C604.452 13.2239 617.613 14.8897 617.982 13.2318C625.015 14.7099 634.393 3.08115 634.393 7.44194L646.115 5.01928L646.113 5.01927C646.113 5.01927 657.225 4.99622 657.758 1.79057C657.71 1.50775 650.5 14.9385 657.685 0.99988C656 14.9999 657.798 1.546 657.758 1.79057C658.284 4.89651 661.639 10.1027 666.433 10.1027L686.5 0.99994C690.243 -1.57206 706.457 15.7431 711.759 13.2318C736.315 18.0188 765.977 3.7838 767.5 0.99988C785.287 11.6094 799.95 15.8007 804.136 15.4792C808.321 15.1577 814.408 9.43318 812.57 7.44194C816.414 6.30409 824.637 5.67425 826.73 2.13775C829.695 3.10225 837.607 9.04923 843.048 9.04923C863.137 15.222 867.5 27 885 24.5L901.147 10.1027L915.564 12.2642L932.828 9.04923L940.733 7.25806L962.124 15.4792H991.42C997.174 13.3359 1006.43 9.13514 1008.72 12.2642C1011.54 16.0982 1025.06 21.285 1035 24.5C1034.06 28.3122 1069.43 18.5418 1067.89 14.9385C1085.5 20.5 1098.5 20.5 1102.5 15.4792C1111 20.5 1116.89 12.9072 1124 15.4792C1122.94 20.9982 1155.83 22.2068 1159.5 20.5L1169 27.5L1182.99 14.9385C1186 22 1190.83 22.7757 1194.5 20.5C1196.7 28.4662 1206.08 14.3034 1208 13.2318V341.48L1204.1 341.153C1198.26 340.661 1192.58 343.212 1189.07 347.902L1186 352L1173 340.363C1171.57 337.566 1141.24 348.626 1132.2 353.448C1132.2 350.096 1128.52 344.97 1122 343.5C1120.71 338.427 1111.31 349.785 1102.5 350.333C1101.67 349.216 1098.6 339.333 1082.5 354.017C1081.14 353.557 1047.54 342.429 1046 350.333C1030.83 353.869 1024.78 349.195 1011 350.333C1007.33 345.497 1000.52 350.15 992.5 348.328L980 354.017C979.477 352.624 974.196 343.5 970.43 343.5V348.328C966.049 348.328 958.654 348.095 955.857 346C951.465 348.76 939.448 353.07 942.5 355.5C930.557 354.647 924.115 352.311 923.196 354.017C920.899 352.595 907.919 354.509 907 356.5C904.5 354.287 889.668 350.333 890.901 350.333C892.134 350.333 878.96 347 876 347C872.135 344.608 859.636 347.534 857.5 350.333C848.816 354.404 825 342.5 823.5 348.328C822 345.66 799.151 346.904 799.5 350.333C792.35 352.155 772.459 347.367 772 345.66C770.624 340.547 763 344 759 344C760 341 741 337.5 735 341.48C726 335.5 719.91 340.194 718.864 345.66C714.5 334.5 669.977 346.066 675.03 350.333L645.333 340.363L642.989 350.333L618.639 358L607.822 350.333L598.641 352.833C595.904 353.579 592.977 352.99 590.74 351.246L587 348.328L578.675 356.293L575 352V13.2318Z" fill="url(#paint1_linear_62_2)"/>
</g>
<defs>
<filter id="filter0_d_62_2" x="0" y="0.738525" width="1212" height="365.261" filterUnits="userSpaceOnUse" color-interpolation-filters="sRGB">
<feFlood flood-opacity="0" result="BackgroundImageFix"/>
<feColorMatrix in="SourceAlpha" type="matrix" values="0 0 0 0 0 0 0 0 0 0 0 0 0 0 0 0 0 0 127 0" result="hardAlpha"/>
<feOffset dy="4"/>
<feGaussianBlur stdDeviation="2"/>
<feComposite in2="hardAlpha" operator="out"/>
<feColorMatrix type="matrix" values="0 0 0 0 0 0 0 0 0 0 0 0 0 0 0 0 0 0 0.25 0"/>
<feBlend mode="normal" in2="BackgroundImageFix" result="effect1_dropShadow_62_2"/>
<feBlend mode="normal" in="SourceGraphic" in2="effect1_dropShadow_62_2" result="shape"/>
</filter>
<linearGradient id="paint0_linear_62_2" x1="891.5" y1="-1.56016" x2="891.5" y2="361.413" gradientUnits="userSpaceOnUse">
<stop stop-color="#FCF5E8"/>
<stop offset="1" stop-color="#ECE4D4"/>
</linearGradient>
<linearGradient id="paint1_linear_62_2" x1="891.5" y1="-1.56016" x2="891.5" y2="361.413" gradientUnits="userSpaceOnUse">
<stop stop-color="#FCF5E8"/>
<stop offset="1" stop-color="#ECE4D4"/>
</linearGradient>
</defs>
</svg>
